<?xml version="1.0" encoding="utf-8"?>
<!-- Generator: Adobe Illustrator 27.1.0, SVG Export Plug-In . SVG Version: 6.00 Build 0)  -->
<svg version="1.1" id="Layer_1" xmlns="http://www.w3.org/2000/svg" xmlns:xlink="http://www.w3.org/1999/xlink" x="0px" y="0px"
	 viewBox="0 0 800 545" style="enable-background:new 0 0 800 545;" xml:space="preserve">
<style type="text/css">
	.st0{fill:#FBB03B;}
	.st1{fill:#ED1C24;}
	.st2{font-family:'Padaloma';}
	.st3{font-size:133.0787px;}
	.st4{font-family:'Amontillados';}
	.st5{font-size:206.2016px;}
	.st6{fill:#FFFFFF;}
</style>
<g>
	<rect x="39" y="148.02" class="st0" width="720.36" height="358.63"/>
	<g>
		<path class="st1" d="M444.98,38.57c0,0-271.69-13.97-349.31,187.85c40.36,0,113.01,0,113.01,0S254.02,64.97,444.98,38.57z"/>
		<path class="st1" d="M444.32,61.24c0,0,201.86-10.38,259.53,139.57c-29.99,0-83.97,0-83.97,0S586.2,80.85,444.32,61.24z"/>
		<path class="st1" d="M320,102.02c0,0,58.69-1.69,62.25,123.63c-21.34,0-29.84,0-29.84,0S364.47,115.57,320,102.02z"/>
		<path class="st1" d="M395.07,71.47c0,0,69.19-2.1,73.39,153.07c-25.16,0-35.18,0-35.18,0S447.49,88.24,395.07,71.47z"/>
		<path class="st1" d="M490.28,98.2c0,0,54.63-1.66,57.94,120.84c-19.86,0-27.78,0-27.78,0S531.66,111.44,490.28,98.2z"/>
	</g>
	<g>
		<text transform="matrix(1 0 0 1 87.231 375.4414)" class="st2 st3">Bridge</text>
		<text transform="matrix(1 0 0 1 246.0742 463.4102)" class="st4 st5">Express</text>
		<text transform="matrix(1 0 0 1 91.8887 369.2314)" class="st6 st2 st3">Bridge</text>
		<text transform="matrix(1 0 0 1 250.7314 457.2002)" class="st6 st4 st5">Express</text>
	</g>
</g>
</svg>
